<?xml version="1.0" encoding="utf-8"?>
<!-- Generator: Adobe Illustrator 28.1.0, SVG Export Plug-In . SVG Version: 6.00 Build 0)  -->
<svg version="1.1" id="Capa_1" xmlns="http://www.w3.org/2000/svg" xmlns:xlink="http://www.w3.org/1999/xlink" x="0px" y="0px"
	 viewBox="0 0 256 256" style="enable-background:new 0 0 256 256;" xml:space="preserve">
<style type="text/css">
	.st0{fill:#FFE1FD;}
</style>
<g>
	<g>
		<path class="st0" d="M128,10C63.3,10,10,63.3,10,128s53.3,118,118,118s118-53.3,118-118S192.7,10,128,10z M199.1,208.8
			c0-32.3-24.3-59.8-53.3-67.9c17.8-6.5,29.1-24.3,29.1-43.6c0-25.9-21-46.9-46.9-46.9s-46.9,21-46.9,46.9
			c0,19.4,12.9,37.2,29.1,43.6c-30.7,8.1-53.3,35.6-53.3,67.9c-22.6-19.4-37.1-48.5-37.1-80.8C19.7,68.2,68.2,19.7,128,19.7
			S236.3,68.2,236.3,128C236.3,160.3,221.8,189.4,199.1,208.8z"/>
	</g>
</g>
</svg>
